<?xml version="1.0" encoding="utf-8"?>
<!-- Generator: Adobe Illustrator 26.3.1, SVG Export Plug-In . SVG Version: 6.00 Build 0)  -->
<svg version="1.1" id="Layer_1" xmlns="http://www.w3.org/2000/svg" xmlns:xlink="http://www.w3.org/1999/xlink" x="0px" y="0px"
	 viewBox="0 0 546.39 173.14" enable-background="new 0 0 546.39 173.14" xml:space="preserve">
<rect fill="#F1F2F2" width="546.39" height="173.14"/>
<path fill="#414042" d="M133.08,20.48v16.49H18.45V20.48H133.08z"/>
<path fill="#414042" d="M127.44,77.36v8.01h-15.68v15.9h-9.6V61.51h9.6v15.85H127.44z M133.69,61.51h9.54v39.76h-9.54V61.51z"/>
<path fill="#414042" d="M187.25,61.51v8.01h-35.5v-8.01H187.25z M187.25,77.42v7.95h-35.5v-7.95H187.25z M187.25,93.26v8.01h-35.33
	v-8.01H187.25z"/>
<path fill="#414042" d="M195.54,86.33v-7.95h22.32c3.64,0,5.45-2.21,5.45-4.43c0-2.21-1.82-4.43-5.45-4.43h-22.32v-8.01h23.97
	c8.75,0,13.06,6.19,13.06,12.44c0,4.83-2.67,9.71-8.01,11.59l12.21,15.73H224.8l-10.51-14.94H195.54z"/>
<path fill="#414042" d="M242.74,61.51h9.6l23,39.76h-9.54L252.34,77.7v23.57h-9.6V61.51z M283.13,61.51h9.6v39.76h-9.6V77.7
	l-6.93,12.1l-4.83-7.78L283.13,61.51z"/>
<path fill="#414042" d="M322.83,102.58c-10.45,0-22.66-6.99-22.66-21.19c0-14.2,12.21-21.19,22.66-21.19
	c10.39,0,22.66,6.99,22.66,21.19C345.49,95.59,333.23,102.58,322.83,102.58z M322.83,69.29c-5.96,0-12.89,3.98-12.89,12.1
	s6.93,12.04,12.89,12.04c5.91,0,12.84-3.92,12.84-12.04S328.74,69.29,322.83,69.29z"/>
<path fill="#414042" d="M387.52,74.01c-3.64-3.18-10.51-5.17-15.85-5.17c-4.2,0-7.38,1.19-7.38,3.92c0,6.93,28,1.7,28,17.55
	c0,8.75-9.09,12.27-18.97,12.27c-8.07,0-16.7-2.33-21.53-6.08l4.71-7.95c3.75,3.47,11.76,5.62,17.78,5.62c4.2,0,7.5-1.14,7.5-3.64
	c0-7.21-27.89-2.21-27.89-17.95c0-8.75,8.18-12.16,17.38-12.16c7.61,0,15.9,2.27,20.9,5.85L387.52,74.01z"/>
<path fill="#414042" d="M442.37,61.51v7.95h-44.36v-7.95H442.37z M415.39,75.71h9.6v25.56h-9.6V75.71z"/>
<path fill="#414042" d="M458.11,60.94h9.71l19.2,40.33h-10.17L462.94,72.3l-13.92,28.97h-10.17L458.11,60.94z"/>
<path fill="#414042" d="M527.94,61.51v7.95h-44.36v-7.95H527.94z M500.96,75.71h9.6v25.56h-9.6V75.71z"/>
<path fill="#F15A29" d="M72.31,99.95c0,7.41-0.03,14.82,0.03,22.23c0.01,1.53-0.32,2.48-1.79,3.33c-4.19,2.43-5.99,7.18-4.72,11.67
	c1.22,4.32,5.74,7.69,10.18,7.59c4.46-0.1,8.71-3.37,9.89-7.63c1.27-4.6-0.49-9.25-4.69-11.66c-1.45-0.83-1.81-1.77-1.8-3.31
	c0.05-14.65,0.03-29.31,0.03-43.96c0-0.74,0.05-1.49-0.04-2.22c-0.26-2.05-1.32-3.36-3.52-3.37c-2.08-0.02-3.14,1.22-3.46,3.15
	c-0.12,0.72-0.09,1.48-0.09,2.22C72.31,85.29,72.31,92.62,72.31,99.95z"/>
<rect x="41.06" y="55.23" fill="#F15A29" width="19.26" height="3.71"/>
<rect x="48.5" y="68.29" fill="#F15A29" width="11.82" height="3.71"/>
<rect x="48.5" y="94.35" fill="#F15A29" width="11.82" height="3.71"/>
<rect x="41.06" y="81.32" fill="#F15A29" width="19.26" height="3.71"/>
<rect x="41.06" y="107.38" fill="#F15A29" width="19.26" height="3.71"/>
<path fill="#414042" d="M88.92,121.6c-1.2-1.16-1.56-2.3-1.55-3.87c0.04-20.74,0.03-41.48,0.02-62.22c0-4.77,0.85-12.26-4.09-12.47
	c-3.51-0.15-10.65-0.16-15.03-0.14c-5.44,0.03-3.9,9.08-3.88,13.54c0.04,10.2,0.01,20.41,0.01,30.61c0,10.2-0.02,20.41,0.02,30.61
	c0.01,1.56-0.33,2.72-1.51,3.91c-5.82,5.84-6.85,14.94-2.66,22.05c4.24,7.19,12.67,10.61,20.58,8.33c8-2.3,13.55-9.55,13.42-17.76
	C94.18,129.33,92.46,125.01,88.92,121.6z M68.18,48.7c0-0.97,0.79-1.77,1.77-1.77h11.64c0.97,0,1.77,0.79,1.77,1.77v4.66
	c0.05,1.1,0.04,2.17,0.04,2.95c-0.02,21.15,0,42.3-0.04,63.45c0,1.59,0.36,2.66,1.7,3.73c3.55,2.83,5.29,6.73,5.2,11.23
	c-0.13,6.79-5.07,12.54-11.59,13.85c-6.26,1.26-12.88-2.06-15.84-7.93c-3.02-6-1.58-12.92,3.77-17.34c1.21-1,1.65-1.98,1.64-3.52
	c-0.06-10.7-0.03-21.4-0.03-32.1"/>
<path fill="#F15A29" d="M322.8,136.74v-2.95h8.94c1.23,0,1.85-0.84,1.85-1.7c0-0.84-0.62-1.68-1.85-1.68h-8.94v-2.69h7.58
	c1.23,0,1.85-0.82,1.85-1.66c0-0.82-0.62-1.66-1.85-1.66h-7.58v-2.74h8.34c3.14,0,4.72,2.18,4.72,4.37c0,0.9-0.28,1.81-0.82,2.56
	c1.4,0.91,2.07,2.37,2.07,3.81c0,2.2-1.57,4.33-4.61,4.33H322.8z"/>
<path fill="#F15A29" d="M343.29,121.66l5.94,8.9v6.18h-3.64v-6.05l-6.55-9.02H343.29z M351.54,121.66h4.24l-4.72,6.27l-2.11-2.5
	L351.54,121.66z"/>
<path fill="#F15A29" d="M372.91,127.67v3.04h-5.95v6.03h-3.64v-15.08h3.64v6.01H372.91z M375.28,121.66h3.62v15.08h-3.62V121.66z"/>
<path fill="#F15A29" d="M390.34,137.23c-3.96,0-8.59-2.65-8.59-8.03c0-5.38,4.63-8.03,8.59-8.03c3.94,0,8.59,2.65,8.59,8.03
	C398.94,134.58,394.28,137.23,390.34,137.23z M390.34,124.61c-2.26,0-4.89,1.51-4.89,4.59s2.63,4.57,4.89,4.57
	c2.24,0,4.87-1.49,4.87-4.57S392.58,124.61,390.34,124.61z"/>
<path fill="#F15A29" d="M401.55,121.66h3.64v8.97c0,2.18,1.98,3.27,3.98,3.27s3.98-1.1,3.98-3.27v-8.97h3.64v8.97
	c0,4.48-3.81,6.7-7.62,6.7s-7.62-2.22-7.62-6.7V121.66z"/>
<path fill="#F15A29" d="M432.93,126.4c-1.38-1.21-3.99-1.96-6.01-1.96c-1.59,0-2.8,0.45-2.8,1.49c0,2.63,10.62,0.65,10.62,6.65
	c0,3.32-3.45,4.65-7.19,4.65c-3.06,0-6.33-0.88-8.16-2.3l1.79-3.02c1.42,1.31,4.46,2.13,6.74,2.13c1.59,0,2.84-0.43,2.84-1.38
	c0-2.74-10.58-0.84-10.58-6.81c0-3.32,3.1-4.61,6.59-4.61c2.89,0,6.03,0.86,7.93,2.22L432.93,126.4z"/>
<path fill="#F15A29" d="M451.03,121.66v3.04h-13.46v-3.04H451.03z M451.03,127.69v3.02h-13.46v-3.02H451.03z M451.03,133.7v3.04
	h-13.4v-3.04H451.03z"/>
<path fill="#F15A29" d="M462.24,121.16c3.02,0,5.6,1.23,7.22,3.32l-2.69,2.35c-0.97-1.23-2.71-2.18-4.37-2.18
	c-3.21,0-4.82,2.26-4.82,4.54c0,2.26,1.62,4.52,4.82,4.52c2.11,0,3.45-1.03,4.37-2.22l2.69,2.35c-1.66,2.05-4.24,3.38-7.24,3.38
	c-3.88,0-8.42-2.74-8.42-8.03C453.79,123.9,458.36,121.16,462.24,121.16z"/>
<path fill="#F15A29" d="M480.18,137.23c-3.96,0-8.59-2.65-8.59-8.03c0-5.38,4.63-8.03,8.59-8.03c3.94,0,8.59,2.65,8.59,8.03
	C488.78,134.58,484.12,137.23,480.18,137.23z M480.18,124.61c-2.26,0-4.89,1.51-4.89,4.59s2.63,4.57,4.89,4.57
	c2.24,0,4.87-1.49,4.87-4.57S482.42,124.61,480.18,124.61z"/>
<path fill="#F15A29" d="M491.6,121.66h3.64l8.72,15.08h-3.62l-5.11-8.94v8.94h-3.64V121.66z M506.92,121.66h3.64v15.08h-3.64v-8.94
	l-2.63,4.59l-1.83-2.95L506.92,121.66z"/>
</svg>
